<svg width="83" height="33" viewBox="0 0 83 33" fill="none" xmlns="http://www.w3.org/2000/svg">
<g clip-path="url(#clip0_36_2)">
<rect width="83" height="33" fill="white"/>
<rect width="83" height="33" fill="white"/>
<path d="M8.72 29.0463C7.92 29.0463 7.37333 28.8597 7.08 28.4863C6.78667 28.0863 6.64 27.6063 6.64 27.0463C6.64 26.2997 6.8 25.4996 7.12 24.6463C7.46667 23.793 7.74667 23.1263 7.96 22.6463C7.61333 23.0196 7.28 23.3796 6.96 23.7263C6.64 24.073 6.41333 24.3263 6.28 24.4863C6.2 24.593 6.13333 24.6463 6.08 24.6463C6.02667 24.6463 6 24.5797 6 24.4463C6 24.233 6.06667 24.033 6.2 23.8463C6.57333 23.3663 7 22.8597 7.48 22.3263C7.96 21.793 8.42667 21.233 8.88 20.6463C9.41333 19.6596 10 18.513 10.64 17.2063C11.3067 15.873 11.9867 14.513 12.68 13.1263C13.4 11.713 14.0933 10.4196 14.76 9.24632C15.4533 8.04632 16.0667 7.08632 16.6 6.36632C18 4.44629 20.7786 2.7608 21.4 5.24632C21.4267 5.32632 21.44 5.47298 21.44 5.68632C21.44 6.29965 21.2267 7.04632 20.8 7.92632C20.4 8.80632 19.92 9.67298 19.36 10.5263C18.8267 11.353 18.36 12.033 17.96 12.5663C16.8933 14.0597 15.8 15.4197 14.68 16.6463C13.56 17.8463 12.5467 18.8597 11.64 19.6863C10.76 20.4863 10.12 21.073 9.72 21.4463C9.53333 21.793 9.30667 22.2597 9.04 22.8463C8.8 23.4063 8.58667 24.0063 8.4 24.6463C8.21333 25.2596 8.12 25.833 8.12 26.3663C8.12 26.8197 8.22667 27.2063 8.44 27.5263C8.65333 27.8197 9.01333 27.9663 9.52 27.9663C9.6 27.9663 9.68 27.9663 9.76 27.9663C9.84 27.9663 9.93333 27.953 10.04 27.9263C10.4933 27.8463 10.9867 27.593 11.52 27.1663C12.0533 26.7397 12.5867 26.2463 13.12 25.6863C13.6533 25.1263 14.1333 24.593 14.56 24.0863C14.7467 23.873 14.92 23.673 15.08 23.4863C15.24 23.273 15.3467 23.1263 15.4 23.0463C15.5867 23.233 15.5733 23.473 15.36 23.7663C15.1733 24.033 15.0133 24.2597 14.88 24.4463C14.6933 24.6863 14.4267 25.0197 14.08 25.4463C13.7333 25.8463 13.3333 26.2863 12.88 26.7663C12.3733 27.273 11.7467 27.7797 11 28.2863C10.2533 28.793 9.49333 29.0463 8.72 29.0463ZM10.4 19.8463C11.2267 19.153 12.2667 18.1663 13.52 16.8863C14.8 15.5797 16.0533 14.0063 17.28 12.1663C17.4133 11.953 17.6267 11.593 17.92 11.0863C18.24 10.5797 18.56 10.0063 18.88 9.36632C19.2267 8.69965 19.52 8.05965 19.76 7.44632C20 6.80632 20.12 6.25965 20.12 5.80632C20.12 5.37965 20 5.16632 19.76 5.16632C19.4667 5.16632 19.08 5.41965 18.6 5.92632C18.04 6.51298 17.4 7.37965 16.68 8.52632C15.9867 9.64632 15.2533 10.8997 14.48 12.2863C13.7067 13.673 12.96 15.033 12.24 16.3663C11.5467 17.6997 10.9333 18.8597 10.4 19.8463Z" fill="#2C2C3D"/>
<path d="M20.0747 29.0863C19.808 29.0863 19.5814 29.033 19.3947 28.9263C19.208 28.8197 19.1147 28.6197 19.1147 28.3263C19.1147 27.953 19.208 27.5263 19.3947 27.0463C19.5814 26.5663 19.7947 26.0996 20.0347 25.6463C20.2747 25.1663 20.488 24.7797 20.6747 24.4863C19.7414 25.473 18.768 26.4063 17.7547 27.2863C17.248 27.713 16.688 28.113 16.0747 28.4863C15.4614 28.8597 14.808 29.0463 14.1147 29.0463C13.848 29.0463 13.6614 28.9663 13.5547 28.8063C13.448 28.6196 13.3947 28.4063 13.3947 28.1663C13.3947 28.033 13.408 27.9396 13.4347 27.8863C13.568 26.8463 13.9014 25.7663 14.4347 24.6463C14.968 23.5263 15.6214 22.473 16.3947 21.4863C17.168 20.4997 17.9547 19.6997 18.7547 19.0863C19.6614 18.393 20.6614 18.0463 21.7547 18.0463H26.3547C26.488 18.0463 26.5547 18.0997 26.5547 18.2063C26.5547 18.4197 26.4347 18.5263 26.1947 18.5263C25.928 18.5263 25.6614 18.6997 25.3947 19.0463C25.128 19.3663 24.928 19.633 24.7947 19.8463C24.608 20.1397 24.3147 20.633 23.9147 21.3263C23.5147 22.0197 23.1014 22.7797 22.6747 23.6063C22.2747 24.4063 21.928 25.153 21.6347 25.8463C21.3414 26.5397 21.1947 27.0463 21.1947 27.3663C21.1947 27.7397 21.3814 27.9263 21.7547 27.9263C22.1547 27.9263 22.608 27.7397 23.1147 27.3663C23.6214 26.993 24.128 26.5397 24.6347 26.0063C25.168 25.4463 25.648 24.8997 26.0747 24.3663C26.528 23.8063 26.888 23.3663 27.1547 23.0463C27.3147 23.2063 27.3014 23.433 27.1147 23.7263C26.9547 23.993 26.808 24.2063 26.6747 24.3663C26.1414 25.0597 25.528 25.7797 24.8347 26.5263C24.1414 27.2463 23.3814 27.8597 22.5547 28.3663C21.7547 28.8463 20.928 29.0863 20.0747 29.0863ZM15.7547 27.6863C16.0747 27.6863 16.5147 27.4597 17.0747 27.0063C17.6614 26.5263 18.288 25.9397 18.9547 25.2463C19.6214 24.5263 20.248 23.7797 20.8347 23.0063C21.4214 22.2063 21.9014 21.4863 22.2747 20.8463C22.6747 20.1797 22.8747 19.673 22.8747 19.3263C22.8747 19.033 22.7814 18.833 22.5947 18.7263C22.4347 18.6197 22.2214 18.5663 21.9547 18.5663C21.528 18.5663 21.0614 18.7263 20.5547 19.0463C20.0747 19.3397 19.688 19.633 19.3947 19.9263C19.0747 20.2197 18.688 20.6863 18.2347 21.3263C17.808 21.9397 17.3814 22.6197 16.9547 23.3663C16.528 24.113 16.168 24.833 15.8747 25.5263C15.5814 26.2197 15.4347 26.7797 15.4347 27.2063C15.4347 27.5263 15.5414 27.6863 15.7547 27.6863Z" fill="#2C2C3D"/>
<path d="M26.6325 29.5663C26.5258 29.5663 26.5258 29.4463 26.6325 29.2063C26.7658 28.9663 26.8858 28.6997 26.9925 28.4063C27.1258 28.113 27.2592 27.793 27.3925 27.4463C27.6592 26.8063 27.9525 26.0863 28.2725 25.2863C28.5925 24.4863 28.8992 23.713 29.1925 22.9663C29.4858 22.193 29.7392 21.5397 29.9525 21.0063C30.1925 20.4463 30.3525 20.0863 30.4325 19.9263C30.0592 20.3263 29.6058 20.833 29.0725 21.4463C28.5658 22.033 28.0858 22.6063 27.6325 23.1663C27.1792 23.7263 26.8325 24.1663 26.5925 24.4863C26.5125 24.593 26.4458 24.6463 26.3925 24.6463C26.3392 24.6463 26.3125 24.5797 26.3125 24.4463C26.3125 24.233 26.3792 24.033 26.5125 23.8463C27.0192 23.2063 27.5792 22.4863 28.1925 21.6863C28.8325 20.8863 29.4058 20.153 29.9125 19.4863C30.4192 18.793 30.7392 18.3397 30.8725 18.1263C31.1658 18.073 31.5925 17.993 32.1525 17.8863C32.7392 17.7797 33.1392 17.633 33.3525 17.4463C33.4325 17.3663 33.5125 17.3263 33.5925 17.3263C33.6458 17.3263 33.6725 17.3797 33.6725 17.4863C33.6992 17.5663 33.6725 17.6597 33.5925 17.7663C33.4325 17.953 33.1525 18.393 32.7525 19.0863C32.3792 19.753 31.9658 20.4997 31.5125 21.3263C31.0858 22.153 30.6858 22.8996 30.3125 23.5663C30.7392 23.0596 31.1525 22.5796 31.5525 22.1263C31.9792 21.673 32.2725 21.353 32.4325 21.1663C32.7525 20.8463 33.1925 20.4463 33.7525 19.9663C34.3125 19.4863 34.8992 19.0463 35.5125 18.6463C36.1258 18.2463 36.6592 18.0197 37.1125 17.9663C37.2192 17.9397 37.3125 17.9263 37.3925 17.9263C37.4725 17.9263 37.5525 17.9263 37.6325 17.9263C38.1392 17.9263 38.3925 18.113 38.3925 18.4863C38.3925 18.6463 38.3525 18.833 38.2725 19.0463C38.1925 19.2597 38.0858 19.473 37.9525 19.6863C37.7925 20.0063 37.5258 20.513 37.1525 21.2063C36.7792 21.873 36.4458 22.4863 36.1525 23.0463L38.0325 21.1663C38.3525 20.8463 38.7925 20.4463 39.3525 19.9663C39.9125 19.4863 40.4992 19.0463 41.1125 18.6463C41.7258 18.2463 42.2592 18.0197 42.7125 17.9663C42.8192 17.9397 42.9125 17.9263 42.9925 17.9263C43.0992 17.9263 43.1792 17.9263 43.2325 17.9263C43.8192 17.9263 44.1125 18.1397 44.1125 18.5663C44.1125 18.8863 43.9392 19.313 43.5925 19.8463C43.4058 20.1397 43.1125 20.633 42.7125 21.3263C42.3125 22.0197 41.8992 22.7797 41.4725 23.6063C41.0725 24.4063 40.7258 25.153 40.4325 25.8463C40.1392 26.5397 39.9925 27.0463 39.9925 27.3663C39.9925 27.7397 40.1792 27.9263 40.5525 27.9263C40.8992 27.9263 41.3392 27.7263 41.8725 27.3263C42.4325 26.8997 42.9925 26.393 43.5525 25.8063C44.1392 25.2196 44.6458 24.6596 45.0725 24.1263C45.2592 23.913 45.4325 23.6997 45.5925 23.4863C45.7792 23.2463 45.8858 23.113 45.9125 23.0863C45.9658 23.1397 45.9925 23.233 45.9925 23.3663C45.9925 23.553 45.9258 23.7397 45.7925 23.9263C45.6858 24.0863 45.5792 24.233 45.4725 24.3663C44.9658 25.033 44.3792 25.7263 43.7125 26.4463C43.0725 27.1663 42.3658 27.7797 41.5925 28.2863C40.8192 28.7663 39.9925 29.0463 39.1125 29.1263C38.8458 29.153 38.5792 29.0996 38.3125 28.9663C38.0458 28.833 37.9125 28.6197 37.9125 28.3263C37.9125 27.953 38.0058 27.513 38.1925 27.0063C38.4058 26.4997 38.6325 25.993 38.8725 25.4863C39.1392 24.9796 39.3392 24.5663 39.4725 24.2463C39.9525 23.313 40.3925 22.433 40.7925 21.6063C41.1925 20.7796 41.4725 20.193 41.6325 19.8463C41.7125 19.6863 41.7525 19.553 41.7525 19.4463C41.7525 19.2597 41.6058 19.2463 41.3125 19.4063C41.0192 19.5663 40.6592 19.8063 40.2325 20.1263C39.8325 20.4463 39.4592 20.7663 39.1125 21.0863C38.7658 21.3797 38.5392 21.5797 38.4325 21.6863C37.9792 22.1397 37.4325 22.753 36.7925 23.5263C36.1792 24.2997 35.6058 25.113 35.0725 25.9663C34.5392 26.793 34.1658 27.5663 33.9525 28.2863C33.6858 28.5263 33.4325 28.6463 33.1925 28.6463C33.0058 28.6463 32.8458 28.5797 32.7125 28.4463C32.6058 28.313 32.5525 28.153 32.5525 27.9663C32.5525 27.433 32.7125 26.8063 33.0325 26.0863C33.3792 25.3397 33.6592 24.7263 33.8725 24.2463C34.3525 23.313 34.7925 22.433 35.1925 21.6063C35.5925 20.7796 35.8725 20.193 36.0325 19.8463C36.1125 19.6863 36.1525 19.553 36.1525 19.4463C36.1525 19.2597 36.0058 19.2463 35.7125 19.4063C35.4192 19.5663 35.0592 19.8063 34.6325 20.1263C34.2325 20.4463 33.8592 20.7663 33.5125 21.0863C33.1658 21.3797 32.9392 21.5797 32.8325 21.6863C32.1925 22.353 31.5925 23.033 31.0325 23.7263C30.4992 24.4197 30.0458 25.1663 29.6725 25.9663C29.4592 26.4463 29.2325 26.9796 28.9925 27.5663C28.7525 28.153 28.5525 28.6463 28.3925 29.0463C28.0458 29.073 27.6992 29.1663 27.3525 29.3263C27.0058 29.4863 26.7658 29.5663 26.6325 29.5663Z" fill="#2C2C3D"/>
<path d="M46.5416 29.0863C46.2749 29.0863 46.0482 29.033 45.8616 28.9263C45.7016 28.8197 45.6216 28.6197 45.6216 28.3263C45.6216 27.953 45.7149 27.513 45.9016 27.0063C46.1149 26.4997 46.3416 25.993 46.5816 25.4863C46.8482 24.9796 47.0482 24.5663 47.1816 24.2463C47.3682 23.873 47.5949 23.393 47.8616 22.8063C48.1549 22.193 48.4216 21.6197 48.6616 21.0863C48.9282 20.5263 49.1149 20.1397 49.2216 19.9263C48.8482 20.3263 48.3949 20.833 47.8616 21.4463C47.3549 22.033 46.8749 22.6063 46.4216 23.1663C45.9682 23.7263 45.6216 24.1663 45.3816 24.4863C45.3016 24.593 45.2349 24.6463 45.1816 24.6463C45.1282 24.6463 45.1016 24.5797 45.1016 24.4463C45.1016 24.233 45.1682 24.033 45.3016 23.8463C45.8082 23.2063 46.3682 22.4863 46.9816 21.6863C47.6216 20.8863 48.1949 20.153 48.7016 19.4863C49.2082 18.793 49.5282 18.3397 49.6616 18.1263C49.9549 18.073 50.3816 17.993 50.9416 17.8863C51.5282 17.7797 51.9282 17.633 52.1416 17.4463C52.2216 17.3663 52.3016 17.3263 52.3816 17.3263C52.4349 17.3263 52.4616 17.3797 52.4616 17.4863C52.4882 17.5663 52.4616 17.6597 52.3816 17.7663C52.2216 17.953 51.9416 18.4063 51.5416 19.1263C51.1416 19.8463 50.7149 20.6463 50.2616 21.5263C49.8349 22.3797 49.4349 23.153 49.0616 23.8463C48.6882 24.5663 48.3682 25.2597 48.1016 25.9263C47.8349 26.593 47.7016 27.073 47.7016 27.3663C47.7016 27.7397 47.8882 27.9263 48.2616 27.9263C48.6082 27.9263 49.0482 27.713 49.5816 27.2863C50.1416 26.8597 50.7016 26.353 51.2616 25.7663C51.8216 25.153 52.3149 24.593 52.7416 24.0863C52.8749 23.9263 53.0349 23.7397 53.2216 23.5263C53.4349 23.2863 53.5682 23.1397 53.6216 23.0863C53.6749 23.1397 53.7016 23.233 53.7016 23.3663C53.6749 23.553 53.6082 23.7397 53.5016 23.9263C53.3949 24.0863 53.2882 24.233 53.1816 24.3663C52.6216 25.0597 52.0082 25.7797 51.3416 26.5263C50.6749 27.2463 49.9416 27.8597 49.1416 28.3663C48.3416 28.8463 47.4749 29.0863 46.5416 29.0863Z" fill="#2C2C3D"/>
<path d="M58.3169 29.0863C58.0502 29.0863 57.8235 29.033 57.6369 28.9263C57.4502 28.8197 57.3569 28.6197 57.3569 28.3263C57.3569 27.953 57.4502 27.5263 57.6369 27.0463C57.8235 26.5663 58.0369 26.0996 58.2769 25.6463C58.5169 25.1663 58.7302 24.7797 58.9169 24.4863C57.9835 25.473 57.0102 26.4063 55.9969 27.2863C55.4902 27.713 54.9302 28.113 54.3169 28.4863C53.7035 28.8597 53.0502 29.0463 52.3569 29.0463C52.0902 29.0463 51.9035 28.9663 51.7969 28.8063C51.6902 28.6196 51.6369 28.4063 51.6369 28.1663C51.6369 28.033 51.6502 27.9396 51.6769 27.8863C51.8102 26.8463 52.1435 25.7663 52.6769 24.6463C53.2102 23.5263 53.8635 22.473 54.6369 21.4863C55.4102 20.4997 56.1969 19.6997 56.9969 19.0863C57.9035 18.393 58.9035 18.0463 59.9969 18.0463H64.5969C64.7302 18.0463 64.7969 18.0997 64.7969 18.2063C64.7969 18.4197 64.6769 18.5263 64.4369 18.5263C64.1702 18.5263 63.9035 18.6997 63.6369 19.0463C63.3702 19.3663 63.1702 19.633 63.0369 19.8463C62.8502 20.1397 62.5569 20.633 62.1569 21.3263C61.7569 22.0197 61.3435 22.7797 60.9169 23.6063C60.5169 24.4063 60.1702 25.153 59.8769 25.8463C59.5835 26.5397 59.4369 27.0463 59.4369 27.3663C59.4369 27.7397 59.6235 27.9263 59.9969 27.9263C60.3969 27.9263 60.8502 27.7397 61.3569 27.3663C61.8635 26.993 62.3702 26.5397 62.8769 26.0063C63.4102 25.4463 63.8902 24.8997 64.3169 24.3663C64.7702 23.8063 65.1302 23.3663 65.3969 23.0463C65.5569 23.2063 65.5435 23.433 65.3569 23.7263C65.1969 23.993 65.0502 24.2063 64.9169 24.3663C64.3835 25.0597 63.7702 25.7797 63.0769 26.5263C62.3835 27.2463 61.6235 27.8597 60.7969 28.3663C59.9969 28.8463 59.1702 29.0863 58.3169 29.0863ZM53.9969 27.6863C54.3169 27.6863 54.7569 27.4597 55.3169 27.0063C55.9035 26.5263 56.5302 25.9397 57.1969 25.2463C57.8635 24.5263 58.4902 23.7797 59.0769 23.0063C59.6635 22.2063 60.1435 21.4863 60.5169 20.8463C60.9169 20.1797 61.1169 19.673 61.1169 19.3263C61.1169 19.033 61.0235 18.833 60.8369 18.7263C60.6769 18.6197 60.4635 18.5663 60.1969 18.5663C59.7702 18.5663 59.3035 18.7263 58.7969 19.0463C58.3169 19.3397 57.9302 19.633 57.6369 19.9263C57.3169 20.2197 56.9302 20.6863 56.4769 21.3263C56.0502 21.9397 55.6235 22.6197 55.1969 23.3663C54.7702 24.113 54.4102 24.833 54.1169 25.5263C53.8235 26.2197 53.6769 26.7797 53.6769 27.2063C53.6769 27.5263 53.7835 27.6863 53.9969 27.6863Z" fill="#2C2C3D"/>
<path d="M70.0747 29.0863C69.808 29.0863 69.5814 29.033 69.3947 28.9263C69.208 28.8197 69.1147 28.6197 69.1147 28.3263C69.1147 27.953 69.208 27.5263 69.3947 27.0463C69.5814 26.5663 69.7947 26.0996 70.0347 25.6463C70.2747 25.1663 70.488 24.7797 70.6747 24.4863C69.7414 25.473 68.768 26.4063 67.7547 27.2863C67.248 27.713 66.688 28.113 66.0747 28.4863C65.4614 28.8597 64.808 29.0463 64.1147 29.0463C63.848 29.0463 63.6614 28.9663 63.5547 28.8063C63.448 28.6196 63.3947 28.4063 63.3947 28.1663C63.3947 28.033 63.408 27.9396 63.4347 27.8863C63.568 26.8463 63.9014 25.7663 64.4347 24.6463C64.968 23.5263 65.6214 22.473 66.3947 21.4863C67.168 20.4997 67.9547 19.6997 68.7547 19.0863C69.6614 18.393 70.6614 18.0463 71.7547 18.0463H76.3547C76.488 18.0463 76.5547 18.0997 76.5547 18.2063C76.5547 18.4197 76.4347 18.5263 76.1947 18.5263C75.928 18.5263 75.6614 18.6997 75.3947 19.0463C75.128 19.3663 74.928 19.633 74.7947 19.8463C74.608 20.1397 74.3147 20.633 73.9147 21.3263C73.5147 22.0197 73.1014 22.7797 72.6747 23.6063C72.2747 24.4063 71.928 25.153 71.6347 25.8463C71.3414 26.5397 71.1947 27.0463 71.1947 27.3663C71.1947 27.7397 71.3814 27.9263 71.7547 27.9263C72.1547 27.9263 72.608 27.7397 73.1147 27.3663C73.6214 26.993 74.128 26.5397 74.6347 26.0063C75.168 25.4463 75.648 24.8997 76.0747 24.3663C76.528 23.8063 76.888 23.3663 77.1547 23.0463C77.3147 23.2063 77.3014 23.433 77.1147 23.7263C76.9547 23.993 76.808 24.2063 76.6747 24.3663C76.1414 25.0597 75.528 25.7797 74.8347 26.5263C74.1414 27.2463 73.3814 27.8597 72.5547 28.3663C71.7547 28.8463 70.928 29.0863 70.0747 29.0863ZM65.7547 27.6863C66.0747 27.6863 66.5147 27.4597 67.0747 27.0063C67.6614 26.5263 68.288 25.9397 68.9547 25.2463C69.6214 24.5263 70.248 23.7797 70.8347 23.0063C71.4214 22.2063 71.9014 21.4863 72.2747 20.8463C72.6747 20.1797 72.8747 19.673 72.8747 19.3263C72.8747 19.033 72.7814 18.833 72.5947 18.7263C72.4347 18.6197 72.2214 18.5663 71.9547 18.5663C71.528 18.5663 71.0614 18.7263 70.5547 19.0463C70.0747 19.3397 69.688 19.633 69.3947 19.9263C69.0747 20.2197 68.688 20.6863 68.2347 21.3263C67.808 21.9397 67.3814 22.6197 66.9547 23.3663C66.528 24.113 66.168 24.833 65.8747 25.5263C65.5814 26.2197 65.4347 26.7797 65.4347 27.2063C65.4347 27.5263 65.5414 27.6863 65.7547 27.6863Z" fill="#2C2C3D"/>
<circle cx="51.5" cy="12.9463" r="1.5" fill="#E15C5C"/>
</g>
<defs>
<clipPath id="clip0_36_2">
<rect width="83" height="33" fill="white"/>
</clipPath>
</defs>
</svg>
